<?xml version="1.0" encoding="UTF-8" standalone="no"?>
<!-- Created with Inkscape (http://www.inkscape.org/) -->

<svg
   width="1901"
   height="1073"
   viewBox="0 0 502.97291 283.89791"
   version="1.1"
   id="svg8"
   inkscape:version="1.1.2 (0a00cf5339, 2022-02-04)"
   sodipodi:docname="pupmotors.svg"
   xmlns:inkscape="http://www.inkscape.org/namespaces/inkscape"
   xmlns:sodipodi="http://sodipodi.sourceforge.net/DTD/sodipodi-0.dtd"
   xmlns:xlink="http://www.w3.org/1999/xlink"
   xmlns="http://www.w3.org/2000/svg"
   xmlns:svg="http://www.w3.org/2000/svg"
   xmlns:rdf="http://www.w3.org/1999/02/22-rdf-syntax-ns#"
   xmlns:cc="http://creativecommons.org/ns#"
   xmlns:dc="http://purl.org/dc/elements/1.1/">
  <defs
     id="defs2">
    <marker
       inkscape:isstock="true"
       style="overflow:visible"
       id="marker2398"
       refX="0"
       refY="0"
       orient="auto"
       inkscape:stockid="Arrow2Lend">
      <path
         transform="matrix(-1.1,0,0,-1.1,-1.1,0)"
         d="M 8.7185878,4.0337352 -2.2072895,0.01601326 8.7185884,-4.0017078 c -1.7454984,2.3720609 -1.7354408,5.6174519 -6e-7,8.035443 z"
         style="fill:#000000;fill-opacity:1;fill-rule:evenodd;stroke:#000000;stroke-width:0.625;stroke-linejoin:round;stroke-opacity:1"
         id="path2396"
         inkscape:connector-curvature="0" />
    </marker>
    <marker
       inkscape:stockid="Arrow2Lend"
       orient="auto"
       refY="0"
       refX="0"
       id="Arrow2Lend"
       style="overflow:visible"
       inkscape:isstock="true">
      <path
         id="path885"
         style="fill:#000000;fill-opacity:1;fill-rule:evenodd;stroke:#000000;stroke-width:0.625;stroke-linejoin:round;stroke-opacity:1"
         d="M 8.7185878,4.0337352 -2.2072895,0.01601326 8.7185884,-4.0017078 c -1.7454984,2.3720609 -1.7354408,5.6174519 -6e-7,8.035443 z"
         transform="matrix(-1.1,0,0,-1.1,-1.1,0)"
         inkscape:connector-curvature="0" />
    </marker>
  </defs>
  <sodipodi:namedview
     id="base"
     pagecolor="#ffffff"
     bordercolor="#666666"
     borderopacity="1.0"
     inkscape:pageopacity="0.0"
     inkscape:pageshadow="2"
     inkscape:zoom="0.46920771"
     inkscape:cx="914.30722"
     inkscape:cy="570.10998"
     inkscape:document-units="mm"
     inkscape:current-layer="layer1"
     showgrid="false"
     units="px"
     inkscape:window-width="1856"
     inkscape:window-height="1136"
     inkscape:window-x="64"
     inkscape:window-y="27"
     inkscape:window-maximized="1"
     showguides="false"
     inkscape:snap-global="false"
     inkscape:pagecheckerboard="0" />
  <metadata
     id="metadata5">
    <rdf:RDF>
      <cc:Work
         rdf:about="">
        <dc:format>image/svg+xml</dc:format>
        <dc:type
           rdf:resource="http://purl.org/dc/dcmitype/StillImage" />
      </cc:Work>
    </rdf:RDF>
  </metadata>
  <g
     inkscape:label="Layer 1"
     inkscape:groupmode="layer"
     id="layer1"
     transform="translate(0,0.92084997)">
    <image
       width="502.97293"
       height="283.89792"
       preserveAspectRatio="none"
       xlink:href="../cad/output/pupdevice-motors.png"
       id="image888"
       x="0"
       y="-0.92084998" />
    <g
       transform="matrix(1.8756049,0,0,1.8756049,90.199834,-175.76377)"
       id="g2717">
      <g
         transform="matrix(1,-0.27773651,0,1,59.387949,102.27922)"
         id="g2711"
         style="fill:#2980b9;fill-opacity:1;stroke:#fffbfb;stroke-width:0.132292;stroke-miterlimit:4;stroke-dasharray:none;stroke-opacity:1">
        <path
           inkscape:connector-curvature="0"
           d="m 107.60315,149.3339 -4.4195,12.01847 -4.419489,-12.01847 c 2.609269,1.92005 6.179199,1.90899 8.838989,0 z"
           style="fill:#2980b9;fill-opacity:1;fill-rule:evenodd;stroke:#fffbfb;stroke-width:0.132292;stroke-linejoin:round;stroke-miterlimit:4;stroke-dasharray:none;stroke-opacity:1"
           id="path2709" />
      </g>
      <path
         style="color:#000000;font-style:normal;font-variant:normal;font-weight:normal;font-stretch:normal;font-size:medium;line-height:normal;font-family:sans-serif;font-variant-ligatures:normal;font-variant-position:normal;font-variant-caps:normal;font-variant-numeric:normal;font-variant-alternates:normal;font-feature-settings:normal;text-indent:0;text-align:start;text-decoration:none;text-decoration-line:none;text-decoration-style:solid;text-decoration-color:#000000;letter-spacing:normal;word-spacing:normal;text-transform:none;writing-mode:lr-tb;direction:ltr;text-orientation:mixed;dominant-baseline:auto;baseline-shift:baseline;text-anchor:start;white-space:normal;shape-padding:0;clip-rule:nonzero;display:inline;overflow:visible;visibility:visible;opacity:1;isolation:auto;mix-blend-mode:normal;color-interpolation:sRGB;color-interpolation-filters:linearRGB;solid-color:#000000;solid-opacity:1;vector-effect:none;fill:#2980b9;fill-opacity:1;fill-rule:nonzero;stroke:#ffffff;stroke-width:0.1;stroke-linecap:butt;stroke-linejoin:miter;stroke-miterlimit:4;stroke-dasharray:none;stroke-dashoffset:0;stroke-opacity:1;color-rendering:auto;image-rendering:auto;shape-rendering:auto;text-rendering:auto;enable-background:accumulate"
         d="m 148.90956,215.29575 c -8.02867,2.89572 -14.60635,11.81219 -14.60635,19.93021 l 1.74541,-0.62952 c 0,-7.05178 5.7198,-14.86961 12.86094,-17.44522 7.14113,-2.57561 12.86094,1.11628 12.86094,8.16806 l 1.74541,-0.62952 c 0,-8.11802 -6.57768,-12.28973 -14.60635,-9.39401 z"
         id="path2713"
         inkscape:connector-curvature="0" />
      <path
         style="fill:#2980b9;fill-opacity:1;stroke:none;stroke-width:0.264583px;stroke-linecap:butt;stroke-linejoin:miter;stroke-opacity:1"
         d="m 161.70224,224.65346 1.85836,-0.53454 0.43431,0.40926 -0.98973,1.42822 c 0,0 -2.13398,-0.30486 -2.13398,-0.32574 0,-0.0209 0.83104,-0.9772 0.83104,-0.9772 z"
         id="path2715"
         inkscape:connector-curvature="0" />
    </g>
    <g
       id="g2727"
       transform="matrix(1.6215476,0,0,1.6215476,-89.058468,-181.2828)">
      <g
         style="fill:#2980b9;fill-opacity:1;stroke:#fffbfb;stroke-width:0.132292;stroke-miterlimit:4;stroke-dasharray:none;stroke-opacity:1"
         id="g2721"
         transform="matrix(1,-0.27773651,0,1,61.231459,102.02783)">
        <path
           id="path2719"
           style="fill:#2980b9;fill-opacity:1;fill-rule:evenodd;stroke:#fffbfb;stroke-width:0.132292;stroke-linejoin:round;stroke-miterlimit:4;stroke-dasharray:none;stroke-opacity:1"
           d="m 108.02213,149.61786 -4.4195,12.01847 -4.419489,-12.01847 c 2.609269,1.92005 6.179199,1.90899 8.838989,0 z"
           inkscape:connector-curvature="0" />
      </g>
      <path
         inkscape:connector-curvature="0"
         id="path2723"
         d="m 148.34153,213.98543 c -9.56863,3.45114 -17.40796,14.07786 -17.40796,23.75298 l 2.08019,-0.75027 c 0,-8.40437 6.81691,-17.72172 15.32777,-20.79135 8.51086,-3.06963 15.32778,1.33039 15.32778,9.73476 l 2.08019,-0.75027 c 0,-9.67512 -7.83933,-14.647 -17.40797,-11.19585 z"
         style="color:#000000;font-style:normal;font-variant:normal;font-weight:normal;font-stretch:normal;font-size:medium;line-height:normal;font-family:sans-serif;font-variant-ligatures:normal;font-variant-position:normal;font-variant-caps:normal;font-variant-numeric:normal;font-variant-alternates:normal;font-feature-settings:normal;text-indent:0;text-align:start;text-decoration:none;text-decoration-line:none;text-decoration-style:solid;text-decoration-color:#000000;letter-spacing:normal;word-spacing:normal;text-transform:none;writing-mode:lr-tb;direction:ltr;text-orientation:mixed;dominant-baseline:auto;baseline-shift:baseline;text-anchor:start;white-space:normal;shape-padding:0;clip-rule:nonzero;display:inline;overflow:visible;visibility:visible;opacity:1;isolation:auto;mix-blend-mode:normal;color-interpolation:sRGB;color-interpolation-filters:linearRGB;solid-color:#000000;solid-opacity:1;vector-effect:none;fill:#2980b9;fill-opacity:1;fill-rule:nonzero;stroke:#ffffff;stroke-width:0.119181;stroke-linecap:butt;stroke-linejoin:miter;stroke-miterlimit:4;stroke-dasharray:none;stroke-dashoffset:0;stroke-opacity:1;color-rendering:auto;image-rendering:auto;shape-rendering:auto;text-rendering:auto;enable-background:accumulate" />
      <path
         inkscape:connector-curvature="0"
         id="path2725"
         d="m 163.29481,224.66962 2.66183,-0.58475 0.60452,1.41743 -2.97202,1.4099 c 0,0 -0.86657,-1.48848 -0.86657,-1.50936 0,-0.0209 0.57224,-0.73322 0.57224,-0.73322 z"
         style="fill:#2980b9;fill-opacity:1;stroke:none;stroke-width:0.264583px;stroke-linecap:butt;stroke-linejoin:miter;stroke-opacity:1"
         sodipodi:nodetypes="ccccsc" />
    </g>
    <g
       transform="matrix(1.6215476,0,0,1.6215476,100.23153,-198.11053)"
       id="g2747">
      <g
         transform="matrix(1,-0.27773651,0,1,61.231459,102.02783)"
         id="g2741"
         style="fill:#2980b9;fill-opacity:1;stroke:#fffbfb;stroke-width:0.132292;stroke-miterlimit:4;stroke-dasharray:none;stroke-opacity:1">
        <path
           inkscape:connector-curvature="0"
           d="m 108.02213,149.61786 -4.4195,12.01847 -4.419489,-12.01847 c 2.609269,1.92005 6.179199,1.90899 8.838989,0 z"
           style="fill:#2980b9;fill-opacity:1;fill-rule:evenodd;stroke:#fffbfb;stroke-width:0.132292;stroke-linejoin:round;stroke-miterlimit:4;stroke-dasharray:none;stroke-opacity:1"
           id="path2739" />
      </g>
      <path
         style="color:#000000;font-style:normal;font-variant:normal;font-weight:normal;font-stretch:normal;font-size:medium;line-height:normal;font-family:sans-serif;font-variant-ligatures:normal;font-variant-position:normal;font-variant-caps:normal;font-variant-numeric:normal;font-variant-alternates:normal;font-feature-settings:normal;text-indent:0;text-align:start;text-decoration:none;text-decoration-line:none;text-decoration-style:solid;text-decoration-color:#000000;letter-spacing:normal;word-spacing:normal;text-transform:none;writing-mode:lr-tb;direction:ltr;text-orientation:mixed;dominant-baseline:auto;baseline-shift:baseline;text-anchor:start;white-space:normal;shape-padding:0;clip-rule:nonzero;display:inline;overflow:visible;visibility:visible;opacity:1;isolation:auto;mix-blend-mode:normal;color-interpolation:sRGB;color-interpolation-filters:linearRGB;solid-color:#000000;solid-opacity:1;vector-effect:none;fill:#2980b9;fill-opacity:1;fill-rule:nonzero;stroke:#ffffff;stroke-width:0.119181;stroke-linecap:butt;stroke-linejoin:miter;stroke-miterlimit:4;stroke-dasharray:none;stroke-dashoffset:0;stroke-opacity:1;color-rendering:auto;image-rendering:auto;shape-rendering:auto;text-rendering:auto;enable-background:accumulate"
         d="m 148.34153,213.98543 c -9.56863,3.45114 -17.40796,14.07786 -17.40796,23.75298 l 2.08019,-0.75027 c 0,-8.40437 6.81691,-17.72172 15.32777,-20.79135 8.51086,-3.06963 15.32778,1.33039 15.32778,9.73476 l 2.08019,-0.75027 c 0,-9.67512 -7.83933,-14.647 -17.40797,-11.19585 z"
         id="path2743"
         inkscape:connector-curvature="0" />
      <path
         sodipodi:nodetypes="ccccsc"
         style="fill:#2980b9;fill-opacity:1;stroke:none;stroke-width:0.264583px;stroke-linecap:butt;stroke-linejoin:miter;stroke-opacity:1"
         d="m 163.29481,224.66962 2.66183,-0.58475 0.60452,1.41743 -2.97202,1.4099 c 0,0 -0.86657,-1.48848 -0.86657,-1.50936 0,-0.0209 0.57224,-0.73322 0.57224,-0.73322 z"
         id="path2745"
         inkscape:connector-curvature="0" />
    </g>
    <g
       id="g2757"
       transform="matrix(1.8756049,0,0,1.8756049,-94.692862,-170.26207)">
      <g
         style="fill:#2980b9;fill-opacity:1;stroke:#fffbfb;stroke-width:0.132292;stroke-miterlimit:4;stroke-dasharray:none;stroke-opacity:1"
         id="g2751"
         transform="matrix(1,-0.27773651,0,1,59.387949,102.27922)">
        <path
           id="path2749"
           style="fill:#2980b9;fill-opacity:1;fill-rule:evenodd;stroke:#fffbfb;stroke-width:0.132292;stroke-linejoin:round;stroke-miterlimit:4;stroke-dasharray:none;stroke-opacity:1"
           d="m 107.60315,149.3339 -4.4195,12.01847 -4.419489,-12.01847 c 2.609269,1.92005 6.179199,1.90899 8.838989,0 z"
           inkscape:connector-curvature="0" />
      </g>
      <path
         inkscape:connector-curvature="0"
         id="path2753"
         d="m 148.90956,215.29575 c -8.02867,2.89572 -14.60635,11.81219 -14.60635,19.93021 l 1.74541,-0.62952 c 0,-7.05178 5.7198,-14.86961 12.86094,-17.44522 7.14113,-2.57561 12.86094,1.11628 12.86094,8.16806 l 1.74541,-0.62952 c 0,-8.11802 -6.57768,-12.28973 -14.60635,-9.39401 z"
         style="color:#000000;font-style:normal;font-variant:normal;font-weight:normal;font-stretch:normal;font-size:medium;line-height:normal;font-family:sans-serif;font-variant-ligatures:normal;font-variant-position:normal;font-variant-caps:normal;font-variant-numeric:normal;font-variant-alternates:normal;font-feature-settings:normal;text-indent:0;text-align:start;text-decoration:none;text-decoration-line:none;text-decoration-style:solid;text-decoration-color:#000000;letter-spacing:normal;word-spacing:normal;text-transform:none;writing-mode:lr-tb;direction:ltr;text-orientation:mixed;dominant-baseline:auto;baseline-shift:baseline;text-anchor:start;white-space:normal;shape-padding:0;clip-rule:nonzero;display:inline;overflow:visible;visibility:visible;opacity:1;isolation:auto;mix-blend-mode:normal;color-interpolation:sRGB;color-interpolation-filters:linearRGB;solid-color:#000000;solid-opacity:1;vector-effect:none;fill:#2980b9;fill-opacity:1;fill-rule:nonzero;stroke:#ffffff;stroke-width:0.1;stroke-linecap:butt;stroke-linejoin:miter;stroke-miterlimit:4;stroke-dasharray:none;stroke-dashoffset:0;stroke-opacity:1;color-rendering:auto;image-rendering:auto;shape-rendering:auto;text-rendering:auto;enable-background:accumulate" />
      <path
         inkscape:connector-curvature="0"
         id="path2755"
         d="m 161.70224,224.65346 1.85836,-0.53454 0.43431,0.40926 -0.98973,1.42822 c 0,0 -2.13398,-0.30486 -2.13398,-0.32574 0,-0.0209 0.83104,-0.9772 0.83104,-0.9772 z"
         style="fill:#2980b9;fill-opacity:1;stroke:none;stroke-width:0.264583px;stroke-linecap:butt;stroke-linejoin:miter;stroke-opacity:1" />
    </g>
    <g
       transform="matrix(1.8756049,0,0,1.8756049,-240.74249,-165.81263)"
       id="g2767">
      <g
         transform="matrix(1,-0.27773651,0,1,59.387949,102.27922)"
         id="g2761"
         style="fill:#2980b9;fill-opacity:1;stroke:#fffbfb;stroke-width:0.132292;stroke-miterlimit:4;stroke-dasharray:none;stroke-opacity:1">
        <path
           inkscape:connector-curvature="0"
           d="m 107.60315,149.3339 -4.4195,12.01847 -4.419489,-12.01847 c 2.609269,1.92005 6.179199,1.90899 8.838989,0 z"
           style="fill:#2980b9;fill-opacity:1;fill-rule:evenodd;stroke:#fffbfb;stroke-width:0.132292;stroke-linejoin:round;stroke-miterlimit:4;stroke-dasharray:none;stroke-opacity:1"
           id="path2759" />
      </g>
      <path
         style="color:#000000;font-style:normal;font-variant:normal;font-weight:normal;font-stretch:normal;font-size:medium;line-height:normal;font-family:sans-serif;font-variant-ligatures:normal;font-variant-position:normal;font-variant-caps:normal;font-variant-numeric:normal;font-variant-alternates:normal;font-feature-settings:normal;text-indent:0;text-align:start;text-decoration:none;text-decoration-line:none;text-decoration-style:solid;text-decoration-color:#000000;letter-spacing:normal;word-spacing:normal;text-transform:none;writing-mode:lr-tb;direction:ltr;text-orientation:mixed;dominant-baseline:auto;baseline-shift:baseline;text-anchor:start;white-space:normal;shape-padding:0;clip-rule:nonzero;display:inline;overflow:visible;visibility:visible;opacity:1;isolation:auto;mix-blend-mode:normal;color-interpolation:sRGB;color-interpolation-filters:linearRGB;solid-color:#000000;solid-opacity:1;vector-effect:none;fill:#2980b9;fill-opacity:1;fill-rule:nonzero;stroke:#ffffff;stroke-width:0.1;stroke-linecap:butt;stroke-linejoin:miter;stroke-miterlimit:4;stroke-dasharray:none;stroke-dashoffset:0;stroke-opacity:1;color-rendering:auto;image-rendering:auto;shape-rendering:auto;text-rendering:auto;enable-background:accumulate"
         d="m 148.90956,215.29575 c -8.02867,2.89572 -14.60635,11.81219 -14.60635,19.93021 l 1.74541,-0.62952 c 0,-7.05178 5.7198,-14.86961 12.86094,-17.44522 7.14113,-2.57561 12.86094,1.11628 12.86094,8.16806 l 1.74541,-0.62952 c 0,-8.11802 -6.57768,-12.28973 -14.60635,-9.39401 z"
         id="path2763"
         inkscape:connector-curvature="0" />
      <path
         style="fill:#2980b9;fill-opacity:1;stroke:none;stroke-width:0.264583px;stroke-linecap:butt;stroke-linejoin:miter;stroke-opacity:1"
         d="m 161.70224,224.65346 1.85836,-0.53454 0.43431,0.40926 -0.98973,1.42822 c 0,0 -2.13398,-0.30486 -2.13398,-0.32574 0,-0.0209 0.83104,-0.9772 0.83104,-0.9772 z"
         id="path2765"
         inkscape:connector-curvature="0" />
    </g>
    <g
       id="g874"
       transform="matrix(1.8756049,0,0,1.8756049,-198.38924,-316.8828)">
      <g
         style="fill:#2980b9;fill-opacity:1;stroke:#fffbfb;stroke-width:0.132292;stroke-miterlimit:4;stroke-dasharray:none;stroke-opacity:1"
         id="g868"
         transform="matrix(1,-0.27773651,0,1,59.387949,102.27922)">
        <path
           id="path866"
           style="fill:#2980b9;fill-opacity:1;fill-rule:evenodd;stroke:#fffbfb;stroke-width:0.132292;stroke-linejoin:round;stroke-miterlimit:4;stroke-dasharray:none;stroke-opacity:1"
           d="m 107.60315,149.3339 -4.4195,12.01847 -4.419489,-12.01847 c 2.609269,1.92005 6.179199,1.90899 8.838989,0 z"
           inkscape:connector-curvature="0" />
      </g>
      <path
         inkscape:connector-curvature="0"
         id="path870"
         d="m 148.90956,215.29575 c -8.02867,2.89572 -14.60635,11.81219 -14.60635,19.93021 l 1.74541,-0.62952 c 0,-7.05178 5.7198,-14.86961 12.86094,-17.44522 7.14113,-2.57561 12.86094,1.11628 12.86094,8.16806 l 1.74541,-0.62952 c 0,-8.11802 -6.57768,-12.28973 -14.60635,-9.39401 z"
         style="color:#000000;font-style:normal;font-variant:normal;font-weight:normal;font-stretch:normal;font-size:medium;line-height:normal;font-family:sans-serif;font-variant-ligatures:normal;font-variant-position:normal;font-variant-caps:normal;font-variant-numeric:normal;font-variant-alternates:normal;font-feature-settings:normal;text-indent:0;text-align:start;text-decoration:none;text-decoration-line:none;text-decoration-style:solid;text-decoration-color:#000000;letter-spacing:normal;word-spacing:normal;text-transform:none;writing-mode:lr-tb;direction:ltr;text-orientation:mixed;dominant-baseline:auto;baseline-shift:baseline;text-anchor:start;white-space:normal;shape-padding:0;clip-rule:nonzero;display:inline;overflow:visible;visibility:visible;opacity:1;isolation:auto;mix-blend-mode:normal;color-interpolation:sRGB;color-interpolation-filters:linearRGB;solid-color:#000000;solid-opacity:1;vector-effect:none;fill:#2980b9;fill-opacity:1;fill-rule:nonzero;stroke:#ffffff;stroke-width:0.1;stroke-linecap:butt;stroke-linejoin:miter;stroke-miterlimit:4;stroke-dasharray:none;stroke-dashoffset:0;stroke-opacity:1;color-rendering:auto;image-rendering:auto;shape-rendering:auto;text-rendering:auto;enable-background:accumulate" />
      <path
         inkscape:connector-curvature="0"
         id="path872"
         d="m 161.70224,224.65346 1.85836,-0.53454 0.43431,0.40926 -0.98973,1.42822 c 0,0 -2.13398,-0.30486 -2.13398,-0.32574 0,-0.0209 0.83104,-0.9772 0.83104,-0.9772 z"
         style="fill:#2980b9;fill-opacity:1;stroke:none;stroke-width:0.264583px;stroke-linecap:butt;stroke-linejoin:miter;stroke-opacity:1" />
    </g>
    <g
       transform="matrix(1.8756049,0,0,1.8756049,-98.504427,-318.78927)"
       id="g884">
      <g
         transform="matrix(1,-0.27773651,0,1,59.387949,102.27922)"
         id="g878"
         style="fill:#2980b9;fill-opacity:1;stroke:#fffbfb;stroke-width:0.132292;stroke-miterlimit:4;stroke-dasharray:none;stroke-opacity:1">
        <path
           inkscape:connector-curvature="0"
           d="m 107.60315,149.3339 -4.4195,12.01847 -4.419489,-12.01847 c 2.609269,1.92005 6.179199,1.90899 8.838989,0 z"
           style="fill:#2980b9;fill-opacity:1;fill-rule:evenodd;stroke:#fffbfb;stroke-width:0.132292;stroke-linejoin:round;stroke-miterlimit:4;stroke-dasharray:none;stroke-opacity:1"
           id="path876" />
      </g>
      <path
         style="color:#000000;font-style:normal;font-variant:normal;font-weight:normal;font-stretch:normal;font-size:medium;line-height:normal;font-family:sans-serif;font-variant-ligatures:normal;font-variant-position:normal;font-variant-caps:normal;font-variant-numeric:normal;font-variant-alternates:normal;font-feature-settings:normal;text-indent:0;text-align:start;text-decoration:none;text-decoration-line:none;text-decoration-style:solid;text-decoration-color:#000000;letter-spacing:normal;word-spacing:normal;text-transform:none;writing-mode:lr-tb;direction:ltr;text-orientation:mixed;dominant-baseline:auto;baseline-shift:baseline;text-anchor:start;white-space:normal;shape-padding:0;clip-rule:nonzero;display:inline;overflow:visible;visibility:visible;opacity:1;isolation:auto;mix-blend-mode:normal;color-interpolation:sRGB;color-interpolation-filters:linearRGB;solid-color:#000000;solid-opacity:1;vector-effect:none;fill:#2980b9;fill-opacity:1;fill-rule:nonzero;stroke:#ffffff;stroke-width:0.1;stroke-linecap:butt;stroke-linejoin:miter;stroke-miterlimit:4;stroke-dasharray:none;stroke-dashoffset:0;stroke-opacity:1;color-rendering:auto;image-rendering:auto;shape-rendering:auto;text-rendering:auto;enable-background:accumulate"
         d="m 148.90956,215.29575 c -8.02867,2.89572 -14.60635,11.81219 -14.60635,19.93021 l 1.74541,-0.62952 c 0,-7.05178 5.7198,-14.86961 12.86094,-17.44522 7.14113,-2.57561 12.86094,1.11628 12.86094,8.16806 l 1.74541,-0.62952 c 0,-8.11802 -6.57768,-12.28973 -14.60635,-9.39401 z"
         id="path880"
         inkscape:connector-curvature="0" />
      <path
         style="fill:#2980b9;fill-opacity:1;stroke:none;stroke-width:0.264583px;stroke-linecap:butt;stroke-linejoin:miter;stroke-opacity:1"
         d="m 161.70224,224.65346 1.85836,-0.53454 0.43431,0.40926 -0.98973,1.42822 c 0,0 -2.13398,-0.30486 -2.13398,-0.32574 0,-0.0209 0.83104,-0.9772 0.83104,-0.9772 z"
         id="path882"
         inkscape:connector-curvature="0" />
    </g>
    <g
       id="g899"
       transform="matrix(1.8756049,0,0,1.8756049,14.289189,-322.09178)">
      <g
         style="fill:#2980b9;fill-opacity:1;stroke:#fffbfb;stroke-width:0.132292;stroke-miterlimit:4;stroke-dasharray:none;stroke-opacity:1"
         id="g893"
         transform="matrix(1,-0.27773651,0,1,59.387949,102.27922)">
        <path
           id="path891"
           style="fill:#2980b9;fill-opacity:1;fill-rule:evenodd;stroke:#fffbfb;stroke-width:0.132292;stroke-linejoin:round;stroke-miterlimit:4;stroke-dasharray:none;stroke-opacity:1"
           d="m 107.60315,149.3339 -4.4195,12.01847 -4.419489,-12.01847 c 2.609269,1.92005 6.179199,1.90899 8.838989,0 z"
           inkscape:connector-curvature="0" />
      </g>
      <path
         inkscape:connector-curvature="0"
         id="path895"
         d="m 148.90956,215.29575 c -8.02867,2.89572 -14.60635,11.81219 -14.60635,19.93021 l 1.74541,-0.62952 c 0,-7.05178 5.7198,-14.86961 12.86094,-17.44522 7.14113,-2.57561 12.86094,1.11628 12.86094,8.16806 l 1.74541,-0.62952 c 0,-8.11802 -6.57768,-12.28973 -14.60635,-9.39401 z"
         style="color:#000000;font-style:normal;font-variant:normal;font-weight:normal;font-stretch:normal;font-size:medium;line-height:normal;font-family:sans-serif;font-variant-ligatures:normal;font-variant-position:normal;font-variant-caps:normal;font-variant-numeric:normal;font-variant-alternates:normal;font-feature-settings:normal;text-indent:0;text-align:start;text-decoration:none;text-decoration-line:none;text-decoration-style:solid;text-decoration-color:#000000;letter-spacing:normal;word-spacing:normal;text-transform:none;writing-mode:lr-tb;direction:ltr;text-orientation:mixed;dominant-baseline:auto;baseline-shift:baseline;text-anchor:start;white-space:normal;shape-padding:0;clip-rule:nonzero;display:inline;overflow:visible;visibility:visible;opacity:1;isolation:auto;mix-blend-mode:normal;color-interpolation:sRGB;color-interpolation-filters:linearRGB;solid-color:#000000;solid-opacity:1;vector-effect:none;fill:#2980b9;fill-opacity:1;fill-rule:nonzero;stroke:#ffffff;stroke-width:0.1;stroke-linecap:butt;stroke-linejoin:miter;stroke-miterlimit:4;stroke-dasharray:none;stroke-dashoffset:0;stroke-opacity:1;color-rendering:auto;image-rendering:auto;shape-rendering:auto;text-rendering:auto;enable-background:accumulate" />
      <path
         inkscape:connector-curvature="0"
         id="path897"
         d="m 161.70224,224.65346 1.85836,-0.53454 0.43431,0.40926 -0.98973,1.42822 c 0,0 -2.13398,-0.30486 -2.13398,-0.32574 0,-0.0209 0.83104,-0.9772 0.83104,-0.9772 z"
         style="fill:#2980b9;fill-opacity:1;stroke:none;stroke-width:0.264583px;stroke-linecap:butt;stroke-linejoin:miter;stroke-opacity:1" />
    </g>
  </g>
</svg>
